<svg width="20" height="21" viewBox="0 0 20 21" fill="none" xmlns="http://www.w3.org/2000/svg">
<g clip-path="url(#clip0_0_35)">
<path fill-rule="evenodd" clip-rule="evenodd" d="M10.9375 14.5625C10.9375 15.0803 10.5178 15.5 10 15.5C9.48223 15.5 9.0625 15.0803 9.0625 14.5625C9.0625 14.0447 9.48223 13.625 10 13.625C10.5178 13.625 10.9375 14.0447 10.9375 14.5625ZM10 6.125C8.27656 6.125 6.875 7.38672 6.875 8.9375V9.25C6.875 9.59518 7.15482 9.875 7.5 9.875C7.84518 9.875 8.125 9.59518 8.125 9.25V8.9375C8.125 8.07812 8.96641 7.375 10 7.375C11.0336 7.375 11.875 8.07812 11.875 8.9375C11.875 9.79688 11.0336 10.5 10 10.5C9.65482 10.5 9.375 10.7798 9.375 11.125V11.75C9.375 12.0952 9.65482 12.375 10 12.375C10.3452 12.375 10.625 12.0952 10.625 11.75V11.6938C12.05 11.432 13.125 10.2953 13.125 8.9375C13.125 7.38672 11.7234 6.125 10 6.125ZM18.125 10.5C18.125 14.9873 14.4873 18.625 10 18.625C5.51269 18.625 1.875 14.9873 1.875 10.5C1.875 6.01269 5.51269 2.375 10 2.375C14.4853 2.37974 18.1203 6.01465 18.125 10.5ZM16.875 10.5C16.875 6.70304 13.797 3.625 10 3.625C6.20304 3.625 3.125 6.70304 3.125 10.5C3.125 14.297 6.20304 17.375 10 17.375C13.7952 17.3707 16.8707 14.2952 16.875 10.5Z" fill="white"/>
</g>
<defs>
<clipPath id="clip0_0_35">
<rect width="20" height="20" fill="white" transform="translate(0 0.5)"/>
</clipPath>
</defs>
</svg>
