<svg width="27" height="27" viewBox="0 0 27 27" fill="none" xmlns="http://www.w3.org/2000/svg">
<g clip-path="url(#clip0_0_20)">
<path fill-rule="evenodd" clip-rule="evenodd" d="M24.222 23.028L18.9411 17.7483C22.1208 13.9309 21.7355 8.2878 18.0665 4.93802C14.3976 1.58823 8.74276 1.71675 5.22975 5.22975C1.71675 8.74276 1.58823 14.3976 4.93802 18.0665C8.2878 21.7355 13.9309 22.1208 17.7483 18.9411L23.028 24.222C23.3577 24.5516 23.8923 24.5516 24.222 24.222C24.5516 23.8923 24.5516 23.3577 24.222 23.028ZM4.21875 11.8125C4.21875 7.61859 7.61859 4.21875 11.8125 4.21875C16.0064 4.21875 19.4062 7.61859 19.4062 11.8125C19.4062 16.0064 16.0064 19.4062 11.8125 19.4062C7.62052 19.4016 4.2234 16.0045 4.21875 11.8125Z" fill="white" fill-opacity="0.31"/>
</g>
<defs>
<clipPath id="clip0_0_20">
<rect width="27" height="27" fill="white"/>
</clipPath>
</defs>
</svg>
